<?xml version="1.0" encoding="UTF-8"?>
<svg xmlns="http://www.w3.org/2000/svg" viewBox="0 0 800 800" width="800" height="800">
<title>Epic Chess, echiquier argent</title>
<defs><pattern id="pL" width="200" height="200" patternUnits="userSpaceOnUse"><rect x="0" y="0" width="100" height="100" fill="#fff" shape-rendering="crispEdges"/><rect x="100" y="100" width="100" height="100" fill="#fff" shape-rendering="crispEdges"/></pattern><pattern id="pD" width="200" height="200" patternUnits="userSpaceOnUse"><rect x="100" y="0" width="100" height="100" fill="#fff" shape-rendering="crispEdges"/><rect x="0" y="100" width="100" height="100" fill="#fff" shape-rendering="crispEdges"/></pattern><mask id="mL"><rect width="800" height="800" fill="url(#pL)"/></mask><mask id="mD"><rect width="800" height="800" fill="url(#pD)"/></mask><linearGradient id="lgL" x1="0" y1="0" x2="1" y2="1"><stop offset="0" stop-color="#e6eaee"/><stop offset=".5" stop-color="#d0d6dc"/><stop offset="1" stop-color="#b3bbc4"/></linearGradient><linearGradient id="lgD" x1="0" y1="0" x2="1" y2="1"><stop offset="0" stop-color="#68737f"/><stop offset=".5" stop-color="#56606b"/><stop offset="1" stop-color="#424a54"/></linearGradient><pattern id="mL0" width="26" height="7.5" patternUnits="userSpaceOnUse"><path d="M0 3.75Q6.5 0 13 3.75T26 3.75" fill="none" stroke="#76818c" stroke-width="1.1"/></pattern><pattern id="mD0" width="26" height="7.5" patternUnits="userSpaceOnUse" patternTransform="rotate(90)"><path d="M0 3.75Q6.5 0 13 3.75T26 3.75" fill="none" stroke="#c9d3dc" stroke-width="1.1"/></pattern><filter id="vL1" x="0" y="0" width="1" height="1" color-interpolation-filters="sRGB"><feTurbulence type="fractalNoise" baseFrequency="1.1 0.004" numOctaves="1" seed="50" stitchTiles="stitch"/><feColorMatrix values="0 0 0 0 0 0 0 0 0 0 0 0 0 0 0 1 0 0 0 0"/><feComponentTransfer result="m"><feFuncA type="table" tableValues="0 0.5 0 0.5 0"/></feComponentTransfer><feFlood flood-color="#ffffff" flood-opacity="0.18"/><feComposite in2="m" operator="in"/></filter><filter id="vD1" x="0" y="0" width="1" height="1" color-interpolation-filters="sRGB"><feTurbulence type="fractalNoise" baseFrequency="0.004 1.1" numOctaves="1" seed="61" stitchTiles="stitch"/><feColorMatrix values="0 0 0 0 0 0 0 0 0 0 0 0 0 0 0 1 0 0 0 0"/><feComponentTransfer result="m"><feFuncA type="table" tableValues="0 0.5 0 0.5 0"/></feComponentTransfer><feFlood flood-color="#e6edf3" flood-opacity="0.08"/><feComposite in2="m" operator="in"/></filter><pattern id="cD2" width="100" height="100" patternUnits="userSpaceOnUse"><g fill="none" stroke="#e9eef2" stroke-width="1.5" stroke-linecap="round"><path d="M7 27C7 15 15 7 27 7M7 27c0 4.5 5.5 5 6 .5M27 7c4.5 0 5 5.5.5 6M13 21c1-4 4-7 8-8"/><g transform="rotate(90 50 50)"><path d="M7 27C7 15 15 7 27 7M7 27c0 4.5 5.5 5 6 .5M27 7c4.5 0 5 5.5.5 6M13 21c1-4 4-7 8-8"/></g><g transform="rotate(180 50 50)"><path d="M7 27C7 15 15 7 27 7M7 27c0 4.5 5.5 5 6 .5M27 7c4.5 0 5 5.5.5 6M13 21c1-4 4-7 8-8"/></g><g transform="rotate(270 50 50)"><path d="M7 27C7 15 15 7 27 7M7 27c0 4.5 5.5 5 6 .5M27 7c4.5 0 5 5.5.5 6M13 21c1-4 4-7 8-8"/></g></g></pattern><pattern id="bv" width="100" height="100" patternUnits="userSpaceOnUse"><path d="M0 0H100L96.8 3.2H3.2V96.8L0 100Z" fill="rgba(255,255,255,.6)"/><path d="M100 0V100H0L3.2 96.8H96.8V3.2Z" fill="rgba(14,20,28,.5)"/></pattern><path id="gd" d="M100 0V800M0 100H800M200 0V800M0 200H800M300 0V800M0 300H800M400 0V800M0 400H800M500 0V800M0 500H800M600 0V800M0 600H800M700 0V800M0 700H800"/><radialGradient id="cg" cx=".35" cy=".32" r=".7"><stop offset="0" stop-color="#ffffff"/><stop offset=".45" stop-color="#d3d9df"/><stop offset="1" stop-color="#262c33"/></radialGradient><pattern id="cl" x="50" y="50" width="100" height="100" patternUnits="userSpaceOnUse"><circle cx="50" cy="50" r="4.5" fill="#262c33" opacity=".7"/><circle cx="50" cy="50" r="3.4" fill="url(#cg)"/></pattern><g id="sg" fill="none" stroke-width="2.4" stroke-linecap="round" stroke-linejoin="round"><circle cx="400" cy="400" r="236"/><circle cx="400" cy="400" r="214"/><path transform="rotate(0 400 400)" d="M400 400C350 330 360 250 400 190C440 250 450 330 400 400Z"/><path transform="rotate(45 400 400)" d="M400 400C350 330 360 250 400 190C440 250 450 330 400 400Z"/><path transform="rotate(90 400 400)" d="M400 400C350 330 360 250 400 190C440 250 450 330 400 400Z"/><path transform="rotate(135 400 400)" d="M400 400C350 330 360 250 400 190C440 250 450 330 400 400Z"/><path transform="rotate(180 400 400)" d="M400 400C350 330 360 250 400 190C440 250 450 330 400 400Z"/><path transform="rotate(225 400 400)" d="M400 400C350 330 360 250 400 190C440 250 450 330 400 400Z"/><path transform="rotate(270 400 400)" d="M400 400C350 330 360 250 400 190C440 250 450 330 400 400Z"/><path transform="rotate(315 400 400)" d="M400 400C350 330 360 250 400 190C440 250 450 330 400 400Z"/><circle cx="400" cy="400" r="96"/></g><radialGradient id="vig" cx="38%" cy="32%" r="80%"><stop offset="0" stop-color="#fff" stop-opacity="0.2"/><stop offset=".55" stop-color="#fff" stop-opacity="0"/><stop offset="1" stop-color="#0a0f16" stop-opacity=".34"/></radialGradient><linearGradient id="rf" x1="0" y1="0" x2="1" y2=".7"><stop offset="0" stop-color="#fff" stop-opacity="0"/><stop offset="0.16" stop-color="#fff" stop-opacity="0.27"/><stop offset="0.26" stop-color="#fff" stop-opacity="0"/><stop offset="0.4" stop-color="#000" stop-opacity="0.15"/><stop offset="0.5" stop-color="#000" stop-opacity="0"/><stop offset="0.6" stop-color="#fff" stop-opacity="0.2"/><stop offset="0.66" stop-color="#fff" stop-opacity="0"/><stop offset="0.82" stop-color="#000" stop-opacity="0.12"/><stop offset="1" stop-color="#fff" stop-opacity="0"/></linearGradient></defs>
<rect width="800" height="800" fill="#56606b"/>
<g mask="url(#mL)"><rect width="800" height="800" fill="url(#lgL)"/><rect width="800" height="800" fill="url(#mL0)" opacity="0.22"/><rect width="800" height="800" filter="url(#vL1)"/></g>
<g mask="url(#mD)"><rect width="800" height="800" fill="url(#lgD)"/><rect width="800" height="800" fill="url(#mD0)" opacity="0.12"/><rect width="800" height="800" filter="url(#vD1)"/><rect width="800" height="800" fill="url(#cD2)" opacity="0.34"/></g>
<path d="M0 0h100v100h-100zM300 0h100v100h-100zM600 0h100v100h-100zM700 0h100v100h-100zM400 100h100v100h-100zM100 200h100v100h-100zM600 200h100v100h-100zM700 200h100v100h-100zM200 300h100v100h-100zM100 400h100v100h-100zM300 400h100v100h-100zM100 500h100v100h-100zM400 600h100v100h-100zM0 700h100v100h-100zM200 700h100v100h-100zM600 700h100v100h-100zM700 700h100v100h-100z" fill="#fff" opacity="0.05"/><path d="M400 0h100v100h-100zM0 100h100v100h-100zM100 100h100v100h-100zM200 100h100v100h-100zM600 100h100v100h-100zM700 100h100v100h-100zM200 200h100v100h-100zM400 200h100v100h-100zM100 300h100v100h-100zM400 300h100v100h-100zM600 300h100v100h-100zM700 300h100v100h-100zM400 400h100v100h-100zM600 400h100v100h-100zM700 400h100v100h-100zM300 500h100v100h-100zM400 500h100v100h-100zM700 500h100v100h-100zM100 600h100v100h-100zM500 600h100v100h-100zM700 600h100v100h-100zM100 700h100v100h-100z" fill="#0a0f16" opacity="0.06"/>
<rect width="800" height="800" fill="url(#rf)"/>
<use href="#sg" stroke="#ffffff" opacity="0.07" transform="translate(1.6 1.6)"/><use href="#sg" stroke="#18202a" opacity="0.09"/>
<rect width="800" height="800" fill="url(#bv)"/>
<g fill="none"><use href="#gd" stroke="#262c33" stroke-width="3.6"/><use href="#gd" stroke="#e3e8ec" stroke-width="2"/><use href="#gd" stroke="#ffffff" stroke-width="0.64" opacity=".75" transform="translate(-.4 -.4)"/></g>
<rect x="50" y="50" width="700" height="700" fill="url(#cl)"/>
<rect width="800" height="800" fill="url(#vig)"/>
</svg>
